<svg width="152" height="115" viewBox="0 0 152 115" fill="none" xmlns="http://www.w3.org/2000/svg">
  <path d="M60.5 23.5L72 11H98L109.5 23.5V50L98 61.5H72L60.5 50V23.5Z" fill="#8075FF" fill-opacity="0.24"/>
  <path d="M60.5 23.5L72 11H98L109.5 23.5V50L98 61.5H72L60.5 50V23.5Z" fill="#4B44FF" fill-opacity="0.34"/>
  <path d="M60.5 23.5L72 11H98L109.5 23.5V50L98 61.5H72L60.5 50V23.5Z" stroke="white" stroke-width="2"/>
  <path d="M33.9443 28.224H51.9843V32.976H39.4643V43.2H49.9283V47.952H39.4643V63H33.9443V28.224Z" fill="white"/>
  <path d="M54.5978 28.224H69.5738C71.5738 28.224 73.2698 28.56 74.6618 29.232C76.0538 29.904 77.1098 30.864 77.8298 32.112C78.5498 33.36 78.9098 34.848 78.9098 36.576V39.024C78.9098 40.752 78.5498 42.24 77.8298 43.488C77.1098 44.736 76.0538 45.696 74.6618 46.368C73.2698 47.04 71.5738 47.376 69.5738 47.376H60.1178V63H54.5978V28.224ZM69.5738 42.624C71.0618 42.624 72.1818 42.288 72.9338 41.616C73.7178 40.944 74.1098 40 74.1098 38.784V36.816C74.1098 35.6 73.7178 34.656 72.9338 33.984C72.1818 33.312 71.0618 32.976 69.5738 32.976H60.1178V42.624H69.5738Z" fill="white"/>
  <path d="M86.0308 28.224H104.071V32.976H91.5508V43.2H102.015V47.952H91.5508V58.248H104.071V63H86.0308V28.224Z" fill="white"/>
  <path d="M106.684 28.224H121.66C123.66 28.224 125.356 28.56 126.748 29.232C128.14 29.904 129.196 30.864 129.916 32.112C130.636 33.36 130.996 34.848 130.996 36.576V39.024C130.996 40.752 130.636 42.24 129.916 43.488C129.196 44.736 128.14 45.696 126.748 46.368C125.356 47.04 123.66 47.376 121.66 47.376H112.204V63H106.684V28.224ZM121.66 42.624C123.148 42.624 124.268 42.288 125.02 41.616C125.804 40.944 126.196 40 126.196 38.784V36.816C126.196 35.6 125.804 34.656 125.02 33.984C124.268 33.312 123.148 32.976 121.66 32.976H112.204V42.624H121.66Z" fill="white"/>
  <path d="M112.978 95.224H137.29L133.61 102.088H129.482L126.25 108.952H119.722L122.954 102.088H116.642L112.978 95.224Z" fill="#7066FF"/>
</svg>
